<mxfile host="app.diagrams.net" agent="Mozilla/5.0 (Windows NT 10.0; Win64; x64) AppleWebKit/537.36 (KHTML, like Gecko) Chrome/133.0.0.0 Safari/537.36" version="26.0.15">
  <diagram id="C5RBs43oDa-KdzZeNtuy" name="Page-1">
    <mxGraphModel dx="1509" dy="821" grid="1" gridSize="10" guides="1" tooltips="1" connect="1" arrows="1" fold="1" page="1" pageScale="1" pageWidth="827" pageHeight="1169" math="0" shadow="0">
      <root>
        <mxCell id="WIyWlLk6GJQsqaUBKTNV-0" />
        <mxCell id="WIyWlLk6GJQsqaUBKTNV-1" parent="WIyWlLk6GJQsqaUBKTNV-0" />
        <mxCell id="2FSEbki4BBBP_vHFe1WS-68" value="" style="rounded=0;whiteSpace=wrap;html=1;labelBackgroundColor=#000000;fillColor=#FFFFFF;" vertex="1" parent="WIyWlLk6GJQsqaUBKTNV-1">
          <mxGeometry width="680" height="1160" as="geometry" />
        </mxCell>
        <mxCell id="WIyWlLk6GJQsqaUBKTNV-3" value="회원가입&lt;div&gt;Flow Chart&lt;/div&gt;" style="rounded=1;whiteSpace=wrap;html=1;fontSize=12;glass=0;strokeWidth=1;shadow=0;" parent="WIyWlLk6GJQsqaUBKTNV-1" vertex="1">
          <mxGeometry x="350" y="60" width="120" height="40" as="geometry" />
        </mxCell>
        <mxCell id="2FSEbki4BBBP_vHFe1WS-1" value="14세&lt;div&gt;이상&lt;span style=&quot;background-color: transparent; color: light-dark(rgb(0, 0, 0), rgb(255, 255, 255));&quot;&gt;인가&lt;/span&gt;&lt;/div&gt;" style="rhombus;whiteSpace=wrap;html=1;" vertex="1" parent="WIyWlLk6GJQsqaUBKTNV-1">
          <mxGeometry x="190" y="120" width="80" height="80" as="geometry" />
        </mxCell>
        <mxCell id="2FSEbki4BBBP_vHFe1WS-2" value="" style="endArrow=classic;html=1;rounded=0;exitX=0;exitY=0.5;exitDx=0;exitDy=0;entryX=1;entryY=0.5;entryDx=0;entryDy=0;" edge="1" parent="WIyWlLk6GJQsqaUBKTNV-1" source="2FSEbki4BBBP_vHFe1WS-1" target="2FSEbki4BBBP_vHFe1WS-3">
          <mxGeometry width="50" height="50" relative="1" as="geometry">
            <mxPoint x="370" y="360" as="sourcePoint" />
            <mxPoint x="190" y="100" as="targetPoint" />
          </mxGeometry>
        </mxCell>
        <mxCell id="2FSEbki4BBBP_vHFe1WS-4" value="No" style="edgeLabel;html=1;align=center;verticalAlign=middle;resizable=0;points=[];" vertex="1" connectable="0" parent="2FSEbki4BBBP_vHFe1WS-2">
          <mxGeometry x="-0.1474" y="-3" relative="1" as="geometry">
            <mxPoint y="-13" as="offset" />
          </mxGeometry>
        </mxCell>
        <mxCell id="2FSEbki4BBBP_vHFe1WS-3" value="&lt;div&gt;메인화면 복귀&lt;/div&gt;&lt;div&gt;(회원가입 불가)&lt;/div&gt;" style="rounded=1;whiteSpace=wrap;html=1;" vertex="1" parent="WIyWlLk6GJQsqaUBKTNV-1">
          <mxGeometry x="21.000000000000114" y="130" width="120" height="60" as="geometry" />
        </mxCell>
        <mxCell id="2FSEbki4BBBP_vHFe1WS-8" value="회원정보 입력" style="shape=parallelogram;perimeter=parallelogramPerimeter;whiteSpace=wrap;html=1;fixedSize=1;" vertex="1" parent="WIyWlLk6GJQsqaUBKTNV-1">
          <mxGeometry x="170" y="720" width="120" height="60" as="geometry" />
        </mxCell>
        <mxCell id="2FSEbki4BBBP_vHFe1WS-12" value="데이터&lt;div&gt;유효성&lt;/div&gt;&lt;div&gt;체크&lt;/div&gt;" style="rhombus;whiteSpace=wrap;html=1;" vertex="1" parent="WIyWlLk6GJQsqaUBKTNV-1">
          <mxGeometry x="190" y="860" width="80" height="80" as="geometry" />
        </mxCell>
        <mxCell id="2FSEbki4BBBP_vHFe1WS-18" value="&lt;div&gt;회원 유무&lt;/div&gt;" style="rhombus;whiteSpace=wrap;html=1;" vertex="1" parent="WIyWlLk6GJQsqaUBKTNV-1">
          <mxGeometry x="370" y="120" width="80" height="80" as="geometry" />
        </mxCell>
        <mxCell id="2FSEbki4BBBP_vHFe1WS-19" value="" style="endArrow=classic;html=1;rounded=0;entryX=1;entryY=0.5;entryDx=0;entryDy=0;exitX=0;exitY=0.5;exitDx=0;exitDy=0;" edge="1" parent="WIyWlLk6GJQsqaUBKTNV-1" source="2FSEbki4BBBP_vHFe1WS-18" target="2FSEbki4BBBP_vHFe1WS-1">
          <mxGeometry width="50" height="50" relative="1" as="geometry">
            <mxPoint x="440" y="390" as="sourcePoint" />
            <mxPoint x="490" y="340" as="targetPoint" />
          </mxGeometry>
        </mxCell>
        <mxCell id="2FSEbki4BBBP_vHFe1WS-20" value="No" style="edgeLabel;html=1;align=center;verticalAlign=middle;resizable=0;points=[];" vertex="1" connectable="0" parent="2FSEbki4BBBP_vHFe1WS-19">
          <mxGeometry x="-0.4811" y="-2" relative="1" as="geometry">
            <mxPoint x="-24" y="-8" as="offset" />
          </mxGeometry>
        </mxCell>
        <mxCell id="2FSEbki4BBBP_vHFe1WS-21" value="" style="endArrow=classic;html=1;rounded=0;exitX=1;exitY=0.5;exitDx=0;exitDy=0;" edge="1" parent="WIyWlLk6GJQsqaUBKTNV-1" source="2FSEbki4BBBP_vHFe1WS-18" target="2FSEbki4BBBP_vHFe1WS-22">
          <mxGeometry width="50" height="50" relative="1" as="geometry">
            <mxPoint x="360" y="170" as="sourcePoint" />
            <mxPoint x="490" y="150" as="targetPoint" />
          </mxGeometry>
        </mxCell>
        <mxCell id="2FSEbki4BBBP_vHFe1WS-23" value="Yes" style="edgeLabel;html=1;align=center;verticalAlign=middle;resizable=0;points=[];" vertex="1" connectable="0" parent="2FSEbki4BBBP_vHFe1WS-21">
          <mxGeometry x="-0.297" y="-1" relative="1" as="geometry">
            <mxPoint y="-11" as="offset" />
          </mxGeometry>
        </mxCell>
        <mxCell id="2FSEbki4BBBP_vHFe1WS-22" value="로그인 폼" style="rounded=1;whiteSpace=wrap;html=1;" vertex="1" parent="WIyWlLk6GJQsqaUBKTNV-1">
          <mxGeometry x="520" y="130" width="120" height="60" as="geometry" />
        </mxCell>
        <mxCell id="2FSEbki4BBBP_vHFe1WS-24" value="약관 동의" style="rhombus;whiteSpace=wrap;html=1;" vertex="1" parent="WIyWlLk6GJQsqaUBKTNV-1">
          <mxGeometry x="190" y="340" width="80" height="80" as="geometry" />
        </mxCell>
        <mxCell id="2FSEbki4BBBP_vHFe1WS-25" value="" style="endArrow=classic;html=1;rounded=0;exitX=0.5;exitY=1;exitDx=0;exitDy=0;entryX=0.5;entryY=0;entryDx=0;entryDy=0;" edge="1" parent="WIyWlLk6GJQsqaUBKTNV-1" source="2FSEbki4BBBP_vHFe1WS-1" target="2FSEbki4BBBP_vHFe1WS-45">
          <mxGeometry width="50" height="50" relative="1" as="geometry">
            <mxPoint x="170" y="400" as="sourcePoint" />
            <mxPoint x="230" y="230" as="targetPoint" />
          </mxGeometry>
        </mxCell>
        <mxCell id="2FSEbki4BBBP_vHFe1WS-26" value="Yes" style="edgeLabel;html=1;align=center;verticalAlign=middle;resizable=0;points=[];" vertex="1" connectable="0" parent="2FSEbki4BBBP_vHFe1WS-25">
          <mxGeometry x="-0.0263" relative="1" as="geometry">
            <mxPoint x="10" as="offset" />
          </mxGeometry>
        </mxCell>
        <mxCell id="2FSEbki4BBBP_vHFe1WS-27" value="" style="endArrow=classic;html=1;rounded=0;exitX=0.5;exitY=1;exitDx=0;exitDy=0;entryX=0.5;entryY=0;entryDx=0;entryDy=0;" edge="1" parent="WIyWlLk6GJQsqaUBKTNV-1" source="2FSEbki4BBBP_vHFe1WS-24">
          <mxGeometry width="50" height="50" relative="1" as="geometry">
            <mxPoint x="229.7" y="420" as="sourcePoint" />
            <mxPoint x="229.7" y="480" as="targetPoint" />
          </mxGeometry>
        </mxCell>
        <mxCell id="2FSEbki4BBBP_vHFe1WS-28" value="Yes" style="edgeLabel;html=1;align=center;verticalAlign=middle;resizable=0;points=[];" vertex="1" connectable="0" parent="2FSEbki4BBBP_vHFe1WS-27">
          <mxGeometry x="-0.0263" relative="1" as="geometry">
            <mxPoint x="10" as="offset" />
          </mxGeometry>
        </mxCell>
        <mxCell id="2FSEbki4BBBP_vHFe1WS-29" value="휴대폰 번호 입력" style="shape=parallelogram;perimeter=parallelogramPerimeter;whiteSpace=wrap;html=1;fixedSize=1;" vertex="1" parent="WIyWlLk6GJQsqaUBKTNV-1">
          <mxGeometry x="170" y="480" width="120" height="60" as="geometry" />
        </mxCell>
        <mxCell id="2FSEbki4BBBP_vHFe1WS-43" value="" style="edgeStyle=orthogonalEdgeStyle;rounded=0;orthogonalLoop=1;jettySize=auto;html=1;" edge="1" parent="WIyWlLk6GJQsqaUBKTNV-1" source="2FSEbki4BBBP_vHFe1WS-30" target="2FSEbki4BBBP_vHFe1WS-8">
          <mxGeometry relative="1" as="geometry" />
        </mxCell>
        <mxCell id="2FSEbki4BBBP_vHFe1WS-44" value="Yes" style="edgeLabel;html=1;align=center;verticalAlign=middle;resizable=0;points=[];" vertex="1" connectable="0" parent="2FSEbki4BBBP_vHFe1WS-43">
          <mxGeometry x="-0.3455" y="1" relative="1" as="geometry">
            <mxPoint x="9" as="offset" />
          </mxGeometry>
        </mxCell>
        <mxCell id="2FSEbki4BBBP_vHFe1WS-30" value="데이터&lt;div&gt;유효성&lt;/div&gt;&lt;div&gt;&lt;div&gt;체크&lt;/div&gt;&lt;/div&gt;" style="rhombus;whiteSpace=wrap;html=1;" vertex="1" parent="WIyWlLk6GJQsqaUBKTNV-1">
          <mxGeometry x="190" y="585" width="80" height="80" as="geometry" />
        </mxCell>
        <mxCell id="2FSEbki4BBBP_vHFe1WS-33" value="" style="endArrow=classic;html=1;rounded=0;entryX=0.5;entryY=0;entryDx=0;entryDy=0;exitX=0.5;exitY=1;exitDx=0;exitDy=0;" edge="1" parent="WIyWlLk6GJQsqaUBKTNV-1" source="2FSEbki4BBBP_vHFe1WS-29" target="2FSEbki4BBBP_vHFe1WS-30">
          <mxGeometry width="50" height="50" relative="1" as="geometry">
            <mxPoint x="260" y="560" as="sourcePoint" />
            <mxPoint x="230" y="580" as="targetPoint" />
          </mxGeometry>
        </mxCell>
        <mxCell id="2FSEbki4BBBP_vHFe1WS-37" value="" style="endArrow=classic;html=1;rounded=0;exitX=0;exitY=0.5;exitDx=0;exitDy=0;entryX=0.496;entryY=0.872;entryDx=0;entryDy=0;entryPerimeter=0;" edge="1" parent="WIyWlLk6GJQsqaUBKTNV-1" source="2FSEbki4BBBP_vHFe1WS-30" target="2FSEbki4BBBP_vHFe1WS-62">
          <mxGeometry width="50" height="50" relative="1" as="geometry">
            <mxPoint x="150.3" y="540" as="sourcePoint" />
            <mxPoint x="81" y="570" as="targetPoint" />
            <Array as="points">
              <mxPoint x="81" y="625" />
            </Array>
          </mxGeometry>
        </mxCell>
        <mxCell id="2FSEbki4BBBP_vHFe1WS-38" value="No" style="edgeLabel;html=1;align=center;verticalAlign=middle;resizable=0;points=[];" vertex="1" connectable="0" parent="2FSEbki4BBBP_vHFe1WS-37">
          <mxGeometry x="-0.0263" relative="1" as="geometry">
            <mxPoint x="46" y="-15" as="offset" />
          </mxGeometry>
        </mxCell>
        <mxCell id="2FSEbki4BBBP_vHFe1WS-39" value="" style="endArrow=classic;html=1;rounded=0;entryX=1;entryY=0.5;entryDx=0;entryDy=0;exitX=0;exitY=0.5;exitDx=0;exitDy=0;" edge="1" parent="WIyWlLk6GJQsqaUBKTNV-1" source="2FSEbki4BBBP_vHFe1WS-24" target="2FSEbki4BBBP_vHFe1WS-41">
          <mxGeometry width="50" height="50" relative="1" as="geometry">
            <mxPoint x="170" y="430" as="sourcePoint" />
            <mxPoint x="310" y="380" as="targetPoint" />
          </mxGeometry>
        </mxCell>
        <mxCell id="2FSEbki4BBBP_vHFe1WS-40" value="No" style="edgeLabel;html=1;align=center;verticalAlign=middle;resizable=0;points=[];" vertex="1" connectable="0" parent="2FSEbki4BBBP_vHFe1WS-39">
          <mxGeometry x="-0.1474" y="-3" relative="1" as="geometry">
            <mxPoint y="-13" as="offset" />
          </mxGeometry>
        </mxCell>
        <mxCell id="2FSEbki4BBBP_vHFe1WS-41" value="&lt;div&gt;[Alert]&lt;/div&gt;&lt;font&gt;개인정보 수집 및&lt;/font&gt;&lt;div&gt;&lt;font&gt;이용약관에&lt;/font&gt;&lt;/div&gt;&lt;div&gt;&lt;font&gt;동의해주세요&lt;/font&gt;&lt;/div&gt;" style="shape=document;whiteSpace=wrap;html=1;boundedLbl=1;fontSize=10;" vertex="1" parent="WIyWlLk6GJQsqaUBKTNV-1">
          <mxGeometry x="21" y="345" width="120" height="70" as="geometry" />
        </mxCell>
        <mxCell id="2FSEbki4BBBP_vHFe1WS-45" value="약관 동의 폼" style="rounded=0;whiteSpace=wrap;html=1;" vertex="1" parent="WIyWlLk6GJQsqaUBKTNV-1">
          <mxGeometry x="170" y="230" width="120" height="60" as="geometry" />
        </mxCell>
        <mxCell id="2FSEbki4BBBP_vHFe1WS-46" value="" style="endArrow=classic;html=1;rounded=0;exitX=0.5;exitY=1;exitDx=0;exitDy=0;entryX=0.5;entryY=0;entryDx=0;entryDy=0;" edge="1" parent="WIyWlLk6GJQsqaUBKTNV-1" source="2FSEbki4BBBP_vHFe1WS-45" target="2FSEbki4BBBP_vHFe1WS-24">
          <mxGeometry width="50" height="50" relative="1" as="geometry">
            <mxPoint x="240" y="210" as="sourcePoint" />
            <mxPoint x="240" y="240" as="targetPoint" />
          </mxGeometry>
        </mxCell>
        <mxCell id="2FSEbki4BBBP_vHFe1WS-48" value="" style="edgeStyle=orthogonalEdgeStyle;rounded=0;orthogonalLoop=1;jettySize=auto;html=1;entryX=0.5;entryY=0;entryDx=0;entryDy=0;exitX=0.5;exitY=1;exitDx=0;exitDy=0;" edge="1" parent="WIyWlLk6GJQsqaUBKTNV-1" source="2FSEbki4BBBP_vHFe1WS-8" target="2FSEbki4BBBP_vHFe1WS-12">
          <mxGeometry relative="1" as="geometry">
            <mxPoint x="230" y="780" as="sourcePoint" />
            <mxPoint x="230" y="835" as="targetPoint" />
            <Array as="points" />
          </mxGeometry>
        </mxCell>
        <mxCell id="2FSEbki4BBBP_vHFe1WS-50" value="" style="edgeStyle=orthogonalEdgeStyle;rounded=0;orthogonalLoop=1;jettySize=auto;html=1;exitX=0;exitY=0.5;exitDx=0;exitDy=0;entryX=0.459;entryY=0.895;entryDx=0;entryDy=0;entryPerimeter=0;" edge="1" parent="WIyWlLk6GJQsqaUBKTNV-1" source="2FSEbki4BBBP_vHFe1WS-12" target="2FSEbki4BBBP_vHFe1WS-60">
          <mxGeometry relative="1" as="geometry">
            <mxPoint x="140" y="870" as="sourcePoint" />
            <mxPoint x="80" y="920" as="targetPoint" />
            <Array as="points">
              <mxPoint x="79" y="900" />
            </Array>
          </mxGeometry>
        </mxCell>
        <mxCell id="2FSEbki4BBBP_vHFe1WS-51" value="No" style="edgeLabel;html=1;align=center;verticalAlign=middle;resizable=0;points=[];" vertex="1" connectable="0" parent="2FSEbki4BBBP_vHFe1WS-50">
          <mxGeometry x="-0.3455" y="1" relative="1" as="geometry">
            <mxPoint x="-17" y="-11" as="offset" />
          </mxGeometry>
        </mxCell>
        <mxCell id="2FSEbki4BBBP_vHFe1WS-53" value="" style="endArrow=classic;html=1;rounded=0;exitX=0.5;exitY=1;exitDx=0;exitDy=0;entryX=0.5;entryY=0;entryDx=0;entryDy=0;" edge="1" parent="WIyWlLk6GJQsqaUBKTNV-1" source="2FSEbki4BBBP_vHFe1WS-12" target="2FSEbki4BBBP_vHFe1WS-66">
          <mxGeometry width="50" height="50" relative="1" as="geometry">
            <mxPoint x="380" y="1090" as="sourcePoint" />
            <mxPoint x="230" y="980" as="targetPoint" />
          </mxGeometry>
        </mxCell>
        <mxCell id="2FSEbki4BBBP_vHFe1WS-54" value="Yes" style="edgeLabel;html=1;align=center;verticalAlign=middle;resizable=0;points=[];" vertex="1" connectable="0" parent="2FSEbki4BBBP_vHFe1WS-53">
          <mxGeometry x="-0.175" relative="1" as="geometry">
            <mxPoint x="10" as="offset" />
          </mxGeometry>
        </mxCell>
        <mxCell id="2FSEbki4BBBP_vHFe1WS-56" value="&lt;div&gt;휴대폰 번호 중복 체크&lt;/div&gt;" style="shape=process;whiteSpace=wrap;html=1;backgroundOutline=1;" vertex="1" parent="WIyWlLk6GJQsqaUBKTNV-1">
          <mxGeometry x="330" y="472.5" width="160" height="75" as="geometry" />
        </mxCell>
        <mxCell id="2FSEbki4BBBP_vHFe1WS-57" value="" style="endArrow=none;dashed=1;html=1;dashPattern=1 3;strokeWidth=2;rounded=0;entryX=0;entryY=0.5;entryDx=0;entryDy=0;strokeColor=#CCCCCC;exitX=1;exitY=0.5;exitDx=0;exitDy=0;" edge="1" parent="WIyWlLk6GJQsqaUBKTNV-1" target="2FSEbki4BBBP_vHFe1WS-56" source="2FSEbki4BBBP_vHFe1WS-29">
          <mxGeometry width="50" height="50" relative="1" as="geometry">
            <mxPoint x="290" y="625" as="sourcePoint" />
            <mxPoint x="330" y="525" as="targetPoint" />
          </mxGeometry>
        </mxCell>
        <mxCell id="2FSEbki4BBBP_vHFe1WS-58" value="&lt;div&gt;아이디 중복 체크&lt;/div&gt;&lt;div&gt;&lt;div&gt;비밀번호 규칙&lt;span style=&quot;background-color: transparent; color: light-dark(rgb(0, 0, 0), rgb(255, 255, 255));&quot;&gt;&amp;nbsp;&lt;/span&gt;&lt;span style=&quot;background-color: transparent; color: light-dark(rgb(0, 0, 0), rgb(255, 255, 255));&quot;&gt;체크&lt;/span&gt;&lt;/div&gt;&lt;div&gt;&lt;span style=&quot;background-color: transparent; color: light-dark(rgb(0, 0, 0), rgb(255, 255, 255));&quot;&gt;비밀번호 재확인 체크&lt;/span&gt;&lt;/div&gt;&lt;div&gt;이메일 주소 입력&lt;span style=&quot;background-color: transparent; color: light-dark(rgb(0, 0, 0), rgb(255, 255, 255));&quot;&gt;&amp;nbsp;&lt;/span&gt;&lt;span style=&quot;background-color: transparent; color: light-dark(rgb(0, 0, 0), rgb(255, 255, 255));&quot;&gt;체크&lt;/span&gt;&lt;/div&gt;&lt;div&gt;주소 입력&lt;span style=&quot;background-color: transparent; color: light-dark(rgb(0, 0, 0), rgb(255, 255, 255));&quot;&gt;&amp;nbsp;&lt;/span&gt;&lt;span style=&quot;background-color: transparent; color: light-dark(rgb(0, 0, 0), rgb(255, 255, 255));&quot;&gt;체크&lt;/span&gt;&lt;/div&gt;&lt;/div&gt;" style="shape=process;whiteSpace=wrap;html=1;backgroundOutline=1;align=left;" vertex="1" parent="WIyWlLk6GJQsqaUBKTNV-1">
          <mxGeometry x="330" y="711.25" width="160" height="77.5" as="geometry" />
        </mxCell>
        <mxCell id="2FSEbki4BBBP_vHFe1WS-59" value="" style="endArrow=none;dashed=1;html=1;dashPattern=1 3;strokeWidth=2;rounded=0;entryX=0;entryY=0.5;entryDx=0;entryDy=0;strokeColor=#CCCCCC;" edge="1" parent="WIyWlLk6GJQsqaUBKTNV-1" target="2FSEbki4BBBP_vHFe1WS-58">
          <mxGeometry width="50" height="50" relative="1" as="geometry">
            <mxPoint x="280" y="750" as="sourcePoint" />
            <mxPoint x="320" y="780" as="targetPoint" />
          </mxGeometry>
        </mxCell>
        <mxCell id="2FSEbki4BBBP_vHFe1WS-60" value="&lt;div&gt;[Alert]&lt;/div&gt;중복된 아이디 입니다.&lt;div&gt;비밀번호 규칙 오류입니다.&lt;/div&gt;&lt;div&gt;이메일 주소 오류입니다.&lt;/div&gt;&lt;div&gt;주소가 올바르지 않습니다.&lt;/div&gt;" style="shape=document;whiteSpace=wrap;html=1;boundedLbl=1;align=center;fontSize=10;" vertex="1" parent="WIyWlLk6GJQsqaUBKTNV-1">
          <mxGeometry x="10" y="780" width="150" height="90" as="geometry" />
        </mxCell>
        <mxCell id="2FSEbki4BBBP_vHFe1WS-61" value="" style="endArrow=classic;html=1;rounded=0;entryX=0;entryY=0.5;entryDx=0;entryDy=0;exitX=0.48;exitY=0.021;exitDx=0;exitDy=0;exitPerimeter=0;" edge="1" parent="WIyWlLk6GJQsqaUBKTNV-1" source="2FSEbki4BBBP_vHFe1WS-60" target="2FSEbki4BBBP_vHFe1WS-8">
          <mxGeometry width="50" height="50" relative="1" as="geometry">
            <mxPoint x="80" y="760" as="sourcePoint" />
            <mxPoint x="230" y="670" as="targetPoint" />
            <Array as="points">
              <mxPoint x="82" y="750" />
            </Array>
          </mxGeometry>
        </mxCell>
        <mxCell id="2FSEbki4BBBP_vHFe1WS-62" value="이미 가입된&lt;div&gt;번호입니다.&lt;/div&gt;" style="shape=document;whiteSpace=wrap;html=1;boundedLbl=1;fontSize=10;" vertex="1" parent="WIyWlLk6GJQsqaUBKTNV-1">
          <mxGeometry x="21" y="480" width="120" height="70" as="geometry" />
        </mxCell>
        <mxCell id="2FSEbki4BBBP_vHFe1WS-63" value="" style="endArrow=classic;html=1;rounded=0;entryX=0;entryY=0.5;entryDx=0;entryDy=0;exitX=1.002;exitY=0.375;exitDx=0;exitDy=0;exitPerimeter=0;" edge="1" parent="WIyWlLk6GJQsqaUBKTNV-1" source="2FSEbki4BBBP_vHFe1WS-62" target="2FSEbki4BBBP_vHFe1WS-29">
          <mxGeometry width="50" height="50" relative="1" as="geometry">
            <mxPoint x="160" y="440" as="sourcePoint" />
            <mxPoint x="230" y="420" as="targetPoint" />
            <Array as="points">
              <mxPoint x="160" y="510" />
            </Array>
          </mxGeometry>
        </mxCell>
        <mxCell id="2FSEbki4BBBP_vHFe1WS-64" value="" style="endArrow=classic;html=1;rounded=0;exitX=0.5;exitY=1;exitDx=0;exitDy=0;entryX=0.5;entryY=0;entryDx=0;entryDy=0;" edge="1" parent="WIyWlLk6GJQsqaUBKTNV-1" source="WIyWlLk6GJQsqaUBKTNV-3" target="2FSEbki4BBBP_vHFe1WS-18">
          <mxGeometry width="50" height="50" relative="1" as="geometry">
            <mxPoint x="180" y="470" as="sourcePoint" />
            <mxPoint x="230" y="420" as="targetPoint" />
          </mxGeometry>
        </mxCell>
        <mxCell id="2FSEbki4BBBP_vHFe1WS-65" value="" style="endArrow=classic;html=1;rounded=0;exitX=1;exitY=0.5;exitDx=0;exitDy=0;exitPerimeter=0;entryX=0.5;entryY=1;entryDx=0;entryDy=0;" edge="1" parent="WIyWlLk6GJQsqaUBKTNV-1" source="2FSEbki4BBBP_vHFe1WS-66" target="2FSEbki4BBBP_vHFe1WS-22">
          <mxGeometry width="50" height="50" relative="1" as="geometry">
            <mxPoint x="300" y="1010" as="sourcePoint" />
            <mxPoint x="670" y="1010" as="targetPoint" />
            <Array as="points">
              <mxPoint x="580" y="1010" />
            </Array>
          </mxGeometry>
        </mxCell>
        <mxCell id="2FSEbki4BBBP_vHFe1WS-66" value="회원가입 성공" style="rounded=0;whiteSpace=wrap;html=1;" vertex="1" parent="WIyWlLk6GJQsqaUBKTNV-1">
          <mxGeometry x="170" y="980" width="120" height="60" as="geometry" />
        </mxCell>
      </root>
    </mxGraphModel>
  </diagram>
</mxfile>
